<?xml version="1.0" standalone="no"?>
<!DOCTYPE svg PUBLIC "-//W3C//DTD SVG 20010904//EN"
 "http://www.w3.org/TR/2001/REC-SVG-20010904/DTD/svg10.dtd">
<svg version="1.0" xmlns="http://www.w3.org/2000/svg"
 width="820.000000pt" height="839.000000pt" viewBox="0 0 820.000000 839.000000"
 preserveAspectRatio="xMidYMid meet">

<g transform="translate(0.000000,839.000000) scale(0.100000,-0.100000)"
fill="#000000" stroke="none">
<path d="M3830 7964 c-521 -47 -953 -163 -1385 -374 -1063 -518 -1830 -1511
-2054 -2660 -55 -285 -66 -405 -66 -740 0 -335 11 -455 66 -740 290 -1487
1482 -2679 2969 -2969 285 -55 405 -66 740 -66 335 0 455 11 740 66 1487 290
2679 1482 2969 2969 55 285 66 405 66 740 0 335 -11 455 -66 740 -287 1472
-1457 2655 -2928 2961 -263 54 -418 70 -726 74 -154 1 -300 1 -325 -1z m2480
-1446 c-361 -820 -450 -1022 -455 -1027 -3 -3 -9 -1 -13 5 -114 167 -246 354
-252 354 -3 0 -31 -17 -61 -38 -30 -21 -369 -260 -754 -531 l-699 -494 -16 24
c-98 148 -423 609 -430 609 -5 0 -365 -247 -802 -550 -436 -302 -796 -550
-799 -550 -6 0 -228 316 -236 335 -2 6 18 26 44 44 48 34 1441 999 1735 1203
86 59 160 108 165 108 5 0 108 -142 227 -315 137 -197 223 -312 230 -308 6 4
119 83 251 177 132 93 386 273 565 399 179 127 328 233 332 236 4 4 -50 90
-121 191 -111 161 -125 185 -107 188 24 5 1127 69 1203 71 l51 1 -58 -132z
m-685 -1246 c21 -24 62 -56 90 -70 43 -23 62 -27 135 -27 86 0 136 15 198 61
l22 16 0 -1621 0 -1621 -520 0 -520 0 0 1534 0 1535 242 170 242 170 36 -51
c19 -29 53 -72 75 -96z m-1927 -484 c77 -112 153 -215 169 -230 50 -47 130
-78 204 -78 93 0 133 17 278 118 69 49 132 92 139 96 9 6 12 -265 12 -1338 l0
-1346 -525 0 -525 0 0 1455 0 1455 48 35 c26 19 50 35 53 35 4 0 70 -91 147
-202z m-778 -1508 l0 -1270 -520 0 -520 0 0 1014 0 1015 38 -16 c52 -22 156
-22 214 0 26 10 212 133 414 273 203 140 369 254 371 254 2 0 3 -571 3 -1270z"/>
</g>
</svg>
